<svg xmlns="http://www.w3.org/2000/svg" xmlns:xlink="http://www.w3.org/1999/xlink" width="500" zoomAndPan="magnify" viewBox="0 0 375 374.999991" height="500" preserveAspectRatio="xMidYMid meet" version="1.0"><defs><g/><clipPath id="56919d22c7"><path d="M 107.269531 95.472656 L 267.769531 95.472656 L 267.769531 142 L 107.269531 142 Z M 107.269531 95.472656 " clip-rule="nonzero"/></clipPath><clipPath id="90a8666fc7"><path d="M 136 218 L 239 218 L 239 221.472656 L 136 221.472656 Z M 136 218 " clip-rule="nonzero"/></clipPath><clipPath id="207f2c393b"><path d="M 64.679688 164 L 84 164 L 84 180 L 64.679688 180 Z M 64.679688 164 " clip-rule="nonzero"/></clipPath><clipPath id="20c2294083"><path d="M 92 105.796875 L 107 105.796875 L 107 126 L 92 126 Z M 92 105.796875 " clip-rule="nonzero"/></clipPath><clipPath id="ba4ff9aae1"><path d="M 291 164 L 310.203125 164 L 310.203125 180 L 291 180 Z M 291 164 " clip-rule="nonzero"/></clipPath><clipPath id="6de6c9cdcd"><path d="M 268 105.796875 L 283 105.796875 L 283 126 L 268 126 Z M 268 105.796875 " clip-rule="nonzero"/></clipPath></defs><rect x="-37.5" width="450" fill="#ffffff" y="-37.499999" height="449.999989" fill-opacity="1"/><rect x="-37.5" width="450" fill="#ffffff" y="-37.499999" height="449.999989" fill-opacity="1"/><path fill="#ffffff" d="M 223.5625 173.503906 L 223.5625 134.8125 L 187.496094 145.800781 L 152.285156 134.8125 L 152.285156 173.503906 C 152.285156 173.503906 157 186.257812 187.496094 186.257812 C 217.988281 186.257812 223.5625 173.503906 223.5625 173.503906 Z M 223.5625 173.503906 " fill-opacity="1" fill-rule="nonzero"/><path fill="#ffffff" d="M 254.65625 137.195312 C 253.203125 137.195312 252 138.257812 251.777344 139.648438 L 248.015625 161.535156 C 248.015625 163.1875 250.988281 164.527344 254.65625 164.527344 C 258.324219 164.527344 261.296875 163.1875 261.296875 161.535156 L 257.507812 139.507812 C 257.230469 138.183594 256.058594 137.195312 254.65625 137.195312 Z M 254.65625 137.195312 " fill-opacity="1" fill-rule="nonzero"/><path fill="#ffffff" d="M 257.570312 134.28125 C 257.570312 132.835938 256.515625 131.640625 255.132812 131.410156 L 254.800781 122.105469 L 254.507812 122.191406 L 254.179688 131.410156 C 252.800781 131.640625 251.746094 132.835938 251.746094 134.28125 C 251.746094 135.890625 253.046875 137.191406 254.65625 137.191406 C 256.265625 137.195312 257.570312 135.890625 257.570312 134.28125 Z M 257.570312 134.28125 " fill-opacity="1" fill-rule="nonzero"/><g clip-path="url(#56919d22c7)"><path fill="#ffffff" d="M 195.886719 120.371094 C 195.261719 121.320312 194.054688 122.238281 193.4375 122.667969 C 192.359375 123.421875 190.242188 124.6875 188.136719 124.6875 C 184.472656 124.6875 181.492188 122.257812 181.492188 119.273438 C 181.492188 116.285156 184.472656 113.859375 188.136719 113.859375 C 190.242188 113.859375 192.363281 115.121094 193.4375 115.875 C 194.046875 116.300781 195.234375 117.203125 195.867188 118.144531 L 254.65625 118.007812 L 254.800781 122.109375 L 267.722656 118.414062 L 187.496094 95.476562 L 107.269531 118.414062 L 187.496094 141.351562 L 254.507812 122.191406 L 254.65625 118.007812 Z M 195.886719 120.371094 " fill-opacity="1" fill-rule="nonzero"/></g><path fill="#ffffff" d="M 188.136719 116.113281 C 185.757812 116.113281 183.746094 117.558594 183.746094 119.269531 C 183.746094 120.980469 185.757812 122.429688 188.136719 122.429688 C 190.25 122.429688 193.164062 120.238281 193.917969 119.269531 C 193.164062 118.300781 190.246094 116.113281 188.136719 116.113281 Z M 188.136719 116.113281 " fill-opacity="1" fill-rule="nonzero"/><g clip-path="url(#90a8666fc7)"><path fill="#ffffff" d="M 136.636719 218.464844 L 238.675781 218.464844 L 238.675781 221.773438 L 136.636719 221.773438 Z M 136.636719 218.464844 " fill-opacity="1" fill-rule="nonzero"/></g><path fill="#ffffff" d="M 228.671875 192.691406 L 148.175781 192.691406 L 136.636719 200.085938 L 136.636719 202.445312 C 136.636719 202.445312 232.101562 202.660156 233.886719 202.660156 C 235.671875 202.660156 236.246094 204.304688 236.246094 206.234375 C 236.246094 208.164062 234.171875 210.234375 233.171875 210.234375 L 136.636719 210.234375 L 136.636719 215.523438 L 238.675781 215.523438 C 238.675781 215.523438 238.675781 214.59375 238.675781 213.523438 C 238.121094 213.289062 237.140625 213.113281 236.386719 211.878906 C 238.246094 210.804688 239.746094 208.59375 239.746094 206.089844 C 239.746094 203.589844 238.957031 202.234375 238.101562 201.304688 C 237.246094 200.375 228.671875 192.691406 228.671875 192.691406 Z M 228.671875 192.691406 " fill-opacity="1" fill-rule="nonzero"/><path fill="#ffffff" d="M 129.820312 211.148438 C 129.820312 211.148438 128.0625 216.382812 117.464844 217.511719 C 106.871094 218.644531 102.347656 216.382812 102.347656 216.382812 C 102.347656 216.382812 109.414062 210.875 116.195312 210.59375 C 122.976562 210.308594 129.820312 211.148438 129.820312 211.148438 Z M 129.820312 211.148438 " fill-opacity="1" fill-rule="nonzero"/><path fill="#ffffff" d="M 129.820312 211.148438 C 129.820312 211.148438 130.617188 205.671875 121.839844 199.625 C 113.066406 193.582031 108.011719 193.414062 108.011719 193.414062 C 108.011719 193.414062 110.910156 200.878906 117.976562 205.246094 C 123.746094 208.816406 129.820312 211.148438 129.820312 211.148438 Z M 129.820312 211.148438 " fill-opacity="1" fill-rule="nonzero"/><path fill="#ffffff" d="M 117.253906 207.269531 C 117.253906 207.269531 111.851562 204.832031 103.691406 204.832031 C 95.53125 204.832031 89.386719 209.070312 89.386719 209.070312 C 89.386719 209.070312 95.425781 211.507812 104.113281 211.507812 C 112.804688 211.507812 117.253906 207.269531 117.253906 207.269531 Z M 117.253906 207.269531 " fill-opacity="1" fill-rule="nonzero"/><path fill="#ffffff" d="M 107.265625 202.078125 C 107.265625 202.078125 106.828125 196.167969 102.933594 189 C 99.039062 181.828125 92.378906 178.449219 92.378906 178.449219 C 92.378906 178.449219 93.121094 184.921875 97.269531 192.558594 C 101.417969 200.191406 107.265625 202.078125 107.265625 202.078125 Z M 107.265625 202.078125 " fill-opacity="1" fill-rule="nonzero"/><path fill="#ffffff" d="M 103.191406 201.339844 C 103.191406 201.339844 98.507812 197.707031 90.574219 195.796875 C 82.644531 193.882812 75.675781 196.566406 75.675781 196.566406 C 75.675781 196.566406 80.976562 200.351562 89.425781 202.386719 C 97.871094 204.421875 103.191406 201.339844 103.191406 201.339844 Z M 103.191406 201.339844 " fill-opacity="1" fill-rule="nonzero"/><path fill="#ffffff" d="M 96.167969 195.039062 C 96.167969 195.039062 93.253906 189.878906 86.675781 185.050781 C 80.097656 180.222656 72.636719 180 72.636719 180 C 72.636719 180 76.066406 185.539062 83.066406 190.683594 C 90.074219 195.824219 96.167969 195.039062 96.167969 195.039062 Z M 96.167969 195.039062 " fill-opacity="1" fill-rule="nonzero"/><path fill="#ffffff" d="M 89.199219 184.421875 C 89.199219 184.421875 91.171875 179.136719 90.65625 171.394531 C 90.140625 163.648438 85.730469 158.082031 85.730469 158.082031 C 85.730469 158.082031 83.796875 163.96875 84.34375 172.21875 C 84.894531 180.464844 89.199219 184.421875 89.199219 184.421875 Z M 89.199219 184.421875 " fill-opacity="1" fill-rule="nonzero"/><g clip-path="url(#207f2c393b)"><path fill="#ffffff" d="M 83.664062 179.417969 C 83.664062 179.417969 81.632812 174.714844 76.429688 169.960938 C 71.222656 165.210938 64.832031 164.332031 64.832031 164.332031 C 64.832031 164.332031 67.265625 169.40625 72.808594 174.46875 C 78.351562 179.527344 83.664062 179.417969 83.664062 179.417969 Z M 83.664062 179.417969 " fill-opacity="1" fill-rule="nonzero"/></g><path fill="#ffffff" d="M 80.523438 168.992188 C 80.523438 168.992188 80.273438 163.878906 77.0625 157.601562 C 73.855469 151.324219 68.179688 148.261719 68.179688 148.261719 C 68.179688 148.261719 68.679688 153.867188 72.097656 160.550781 C 75.511719 167.238281 80.523438 168.992188 80.523438 168.992188 Z M 80.523438 168.992188 " fill-opacity="1" fill-rule="nonzero"/><path fill="#ffffff" d="M 78.332031 153.726562 C 78.332031 153.726562 78.773438 148.625 76.4375 141.976562 C 74.101562 135.324219 68.890625 131.527344 68.890625 131.527344 C 68.890625 131.527344 68.632812 137.148438 71.117188 144.226562 C 73.601562 151.3125 78.332031 153.726562 78.332031 153.726562 Z M 78.332031 153.726562 " fill-opacity="1" fill-rule="nonzero"/><path fill="#ffffff" d="M 80.445312 143.667969 C 80.445312 143.667969 82.789062 139.113281 83.148438 132.074219 C 83.511719 125.035156 80.128906 119.546875 80.128906 119.546875 C 80.128906 119.546875 77.757812 124.648438 77.371094 132.144531 C 76.984375 139.640625 80.445312 143.667969 80.445312 143.667969 Z M 80.445312 143.667969 " fill-opacity="1" fill-rule="nonzero"/><path fill="#ffffff" d="M 86.21875 131.5625 C 86.21875 131.5625 89.269531 127.453125 90.769531 120.5625 C 92.269531 113.675781 89.824219 107.710938 89.824219 107.710938 C 89.824219 107.710938 86.65625 112.359375 85.058594 119.695312 C 83.460938 127.027344 86.21875 131.5625 86.21875 131.5625 Z M 86.21875 131.5625 " fill-opacity="1" fill-rule="nonzero"/><path fill="#ffffff" d="M 80.789062 162.429688 C 80.789062 162.429688 84.605469 159.011719 87.457031 152.566406 C 90.304688 146.117188 89.105469 139.78125 89.105469 139.78125 C 89.105469 139.78125 85.070312 143.703125 82.035156 150.566406 C 78.996094 157.429688 80.789062 162.429688 80.789062 162.429688 Z M 80.789062 162.429688 " fill-opacity="1" fill-rule="nonzero"/><path fill="#ffffff" d="M 85.007812 139.386719 C 85.007812 139.386719 89.882812 137.816406 95.113281 133.089844 C 100.339844 128.363281 101.824219 122.085938 101.824219 122.085938 C 101.824219 122.085938 96.539062 124.023438 90.972656 129.058594 C 85.402344 134.089844 85.007812 139.386719 85.007812 139.386719 Z M 85.007812 139.386719 " fill-opacity="1" fill-rule="nonzero"/><g clip-path="url(#20c2294083)"><path fill="#ffffff" d="M 92.210938 125.28125 C 92.210938 125.28125 96.824219 123.054688 101.351562 117.65625 C 105.878906 112.253906 106.484375 105.832031 106.484375 105.832031 C 106.484375 105.832031 101.519531 108.476562 96.695312 114.230469 C 91.875 119.980469 92.210938 125.28125 92.210938 125.28125 Z M 92.210938 125.28125 " fill-opacity="1" fill-rule="nonzero"/></g><path fill="#ffffff" d="M 130.554688 214.460938 C 130.554688 221.550781 118.886719 229.269531 118.886719 225.5 C 118.886719 221.734375 130.554688 216.976562 130.554688 214.460938 Z M 130.554688 214.460938 " fill-opacity="1" fill-rule="nonzero"/><path fill="#ffffff" d="M 245.179688 211.148438 C 245.179688 211.148438 246.933594 216.382812 257.53125 217.511719 C 268.128906 218.644531 272.648438 216.382812 272.648438 216.382812 C 272.648438 216.382812 265.585938 210.875 258.804688 210.59375 C 252.019531 210.308594 245.179688 211.148438 245.179688 211.148438 Z M 245.179688 211.148438 " fill-opacity="1" fill-rule="nonzero"/><path fill="#ffffff" d="M 245.179688 211.148438 C 245.179688 211.148438 244.378906 205.671875 253.15625 199.625 C 261.933594 193.582031 266.984375 193.414062 266.984375 193.414062 C 266.984375 193.414062 264.085938 200.878906 257.023438 205.246094 C 251.25 208.816406 245.179688 211.148438 245.179688 211.148438 Z M 245.179688 211.148438 " fill-opacity="1" fill-rule="nonzero"/><path fill="#ffffff" d="M 257.746094 207.269531 C 257.746094 207.269531 263.148438 204.832031 271.308594 204.832031 C 279.46875 204.832031 285.613281 209.070312 285.613281 209.070312 C 285.613281 209.070312 279.574219 211.507812 270.882812 211.507812 C 262.195312 211.507812 257.746094 207.269531 257.746094 207.269531 Z M 257.746094 207.269531 " fill-opacity="1" fill-rule="nonzero"/><path fill="#ffffff" d="M 267.734375 202.078125 C 267.734375 202.078125 268.171875 196.167969 272.066406 189 C 275.960938 181.828125 282.617188 178.449219 282.617188 178.449219 C 282.617188 178.449219 281.878906 184.921875 277.730469 192.558594 C 273.582031 200.191406 267.734375 202.078125 267.734375 202.078125 Z M 267.734375 202.078125 " fill-opacity="1" fill-rule="nonzero"/><path fill="#ffffff" d="M 271.808594 201.339844 C 271.808594 201.339844 276.492188 197.707031 284.421875 195.796875 C 292.355469 193.882812 299.320312 196.566406 299.320312 196.566406 C 299.320312 196.566406 294.019531 200.351562 285.570312 202.386719 C 277.125 204.421875 271.808594 201.339844 271.808594 201.339844 Z M 271.808594 201.339844 " fill-opacity="1" fill-rule="nonzero"/><path fill="#ffffff" d="M 278.828125 195.039062 C 278.828125 195.039062 281.746094 189.878906 288.324219 185.050781 C 294.902344 180.222656 302.363281 180 302.363281 180 C 302.363281 180 298.933594 185.539062 291.929688 190.683594 C 284.925781 195.824219 278.828125 195.039062 278.828125 195.039062 Z M 278.828125 195.039062 " fill-opacity="1" fill-rule="nonzero"/><path fill="#ffffff" d="M 285.800781 184.421875 C 285.800781 184.421875 283.828125 179.136719 284.34375 171.394531 C 284.859375 163.648438 289.269531 158.082031 289.269531 158.082031 C 289.269531 158.082031 291.203125 163.96875 290.65625 172.21875 C 290.105469 180.464844 285.800781 184.421875 285.800781 184.421875 Z M 285.800781 184.421875 " fill-opacity="1" fill-rule="nonzero"/><g clip-path="url(#ba4ff9aae1)"><path fill="#ffffff" d="M 291.335938 179.417969 C 291.335938 179.417969 293.363281 174.714844 298.570312 169.960938 C 303.777344 165.210938 310.164062 164.332031 310.164062 164.332031 C 310.164062 164.332031 307.730469 169.40625 302.1875 174.46875 C 296.644531 179.527344 291.335938 179.417969 291.335938 179.417969 Z M 291.335938 179.417969 " fill-opacity="1" fill-rule="nonzero"/></g><path fill="#ffffff" d="M 294.476562 168.992188 C 294.476562 168.992188 294.726562 163.878906 297.933594 157.601562 C 301.144531 151.324219 306.820312 148.261719 306.820312 148.261719 C 306.820312 148.261719 306.316406 153.867188 302.902344 160.550781 C 299.484375 167.238281 294.476562 168.992188 294.476562 168.992188 Z M 294.476562 168.992188 " fill-opacity="1" fill-rule="nonzero"/><path fill="#ffffff" d="M 296.667969 153.726562 C 296.667969 153.726562 296.226562 148.625 298.5625 141.976562 C 300.898438 135.324219 306.109375 131.527344 306.109375 131.527344 C 306.109375 131.527344 306.367188 137.148438 303.878906 144.226562 C 301.394531 151.3125 296.667969 153.726562 296.667969 153.726562 Z M 296.667969 153.726562 " fill-opacity="1" fill-rule="nonzero"/><path fill="#ffffff" d="M 294.550781 143.667969 C 294.550781 143.667969 292.210938 139.113281 291.847656 132.074219 C 291.484375 125.035156 294.871094 119.546875 294.871094 119.546875 C 294.871094 119.546875 297.242188 124.648438 297.628906 132.144531 C 298.015625 139.640625 294.550781 143.667969 294.550781 143.667969 Z M 294.550781 143.667969 " fill-opacity="1" fill-rule="nonzero"/><path fill="#ffffff" d="M 288.78125 131.5625 C 288.78125 131.5625 285.730469 127.453125 284.226562 120.5625 C 282.726562 113.675781 285.171875 107.710938 285.171875 107.710938 C 285.171875 107.710938 288.34375 112.359375 289.941406 119.695312 C 291.539062 127.027344 288.78125 131.5625 288.78125 131.5625 Z M 288.78125 131.5625 " fill-opacity="1" fill-rule="nonzero"/><path fill="#ffffff" d="M 294.207031 162.429688 C 294.207031 162.429688 290.394531 159.011719 287.542969 152.566406 C 284.691406 146.117188 285.890625 139.78125 285.890625 139.78125 C 285.890625 139.78125 289.929688 143.703125 292.964844 150.566406 C 296 157.429688 294.207031 162.429688 294.207031 162.429688 Z M 294.207031 162.429688 " fill-opacity="1" fill-rule="nonzero"/><path fill="#ffffff" d="M 289.992188 139.386719 C 289.992188 139.386719 285.117188 137.816406 279.886719 133.089844 C 274.660156 128.363281 273.175781 122.085938 273.175781 122.085938 C 273.175781 122.085938 278.457031 124.023438 284.023438 129.058594 C 289.59375 134.089844 289.992188 139.386719 289.992188 139.386719 Z M 289.992188 139.386719 " fill-opacity="1" fill-rule="nonzero"/><g clip-path="url(#6de6c9cdcd)"><path fill="#ffffff" d="M 282.789062 125.28125 C 282.789062 125.28125 278.175781 123.054688 273.648438 117.65625 C 269.117188 112.253906 268.515625 105.832031 268.515625 105.832031 C 268.515625 105.832031 273.480469 108.476562 278.300781 114.230469 C 283.121094 119.980469 282.789062 125.28125 282.789062 125.28125 Z M 282.789062 125.28125 " fill-opacity="1" fill-rule="nonzero"/></g><path fill="#ffffff" d="M 244.445312 214.460938 C 244.445312 221.550781 256.109375 229.269531 256.109375 225.5 C 256.109375 221.734375 244.445312 216.976562 244.445312 214.460938 Z M 244.445312 214.460938 " fill-opacity="1" fill-rule="nonzero"/><g fill="#ffffff" fill-opacity="1"><g transform="translate(99.766333, 262.025455)"><g><path d="M 12.511719 0.578125 C 19.210938 0.578125 23.175781 -2.578125 23.175781 -7.890625 C 23.175781 -12.355469 20.285156 -14.976562 13.742188 -16.4375 C 10.277344 -17.207031 9.007812 -18.054688 9.007812 -19.441406 C 9.007812 -20.75 10.164062 -21.558594 11.972656 -21.558594 C 14.128906 -21.558594 15.359375 -20.441406 15.359375 -18.402344 L 22.671875 -18.402344 C 22.671875 -23.945312 18.4375 -27.523438 11.816406 -27.523438 C 5.464844 -27.523438 1.539062 -24.367188 1.539062 -19.285156 C 1.539062 -14.742188 4.503906 -11.933594 10.585938 -10.777344 C 13.859375 -10.125 15.4375 -9.125 15.4375 -7.582031 C 15.4375 -6.234375 14.28125 -5.464844 12.394531 -5.464844 C 10.164062 -5.464844 8.855469 -6.660156 8.855469 -8.738281 L 1.347656 -8.738281 C 1.347656 -2.925781 5.503906 0.578125 12.511719 0.578125 Z M 12.511719 0.578125 "/></g></g></g><g fill="#ffffff" fill-opacity="1"><g transform="translate(122.087769, 262.025455)"><g><path d="M 12.933594 0 L 17.054688 0 L 17.054688 -6.234375 L 14.9375 -6.234375 C 12.78125 -6.234375 11.78125 -7.199219 11.78125 -9.316406 L 11.78125 -14.550781 L 16.785156 -14.550781 L 16.785156 -20.363281 L 11.78125 -20.363281 L 11.78125 -25.714844 L 6.042969 -25.714844 L 5.660156 -23.058594 C 5.351562 -20.941406 4.773438 -20.363281 2.464844 -20.363281 L 0.617188 -20.363281 L 0.617188 -14.550781 L 4.386719 -14.550781 L 4.386719 -7.890625 C 4.386719 -2.734375 7.351562 0 12.933594 0 Z M 12.933594 0 "/></g></g></g><g fill="#ffffff" fill-opacity="1"><g transform="translate(138.366819, 262.025455)"><g><path d="M 10.664062 0.578125 C 13.394531 0.578125 15.746094 -0.386719 17.246094 -2.078125 L 18.015625 0 L 23.289062 0 L 23.289062 -20.363281 L 15.898438 -20.363281 L 15.898438 -9.429688 C 15.898438 -6.929688 14.667969 -5.542969 12.664062 -5.542969 C 10.738281 -5.542969 9.585938 -6.8125 9.585938 -9.199219 L 9.585938 -20.363281 L 2.195312 -20.363281 L 2.195312 -8.429688 C 2.195312 -2.925781 5.464844 0.578125 10.664062 0.578125 Z M 10.664062 0.578125 "/></g></g></g><g fill="#ffffff" fill-opacity="1"><g transform="translate(161.996796, 262.025455)"><g><path d="M 11.585938 0.578125 C 14.472656 0.578125 16.898438 -0.386719 18.707031 -2.039062 L 19.441406 0 L 24.753906 0 L 24.753906 -28.488281 L 17.363281 -28.488281 L 17.363281 -19.324219 C 15.746094 -20.363281 13.78125 -20.941406 11.585938 -20.941406 C 5.464844 -20.941406 1.191406 -16.515625 1.191406 -10.203125 C 1.191406 -3.8125 5.464844 0.578125 11.585938 0.578125 Z M 8.429688 -10.203125 C 8.429688 -12.894531 10.316406 -14.820312 13.050781 -14.820312 C 15.746094 -14.820312 17.632812 -12.894531 17.632812 -10.203125 C 17.632812 -7.46875 15.746094 -5.542969 13.050781 -5.542969 C 10.316406 -5.542969 8.429688 -7.46875 8.429688 -10.203125 Z M 8.429688 -10.203125 "/></g></g></g><g fill="#ffffff" fill-opacity="1"><g transform="translate(187.050775, 262.025455)"><g><path d="M 3.042969 7.699219 L 5.964844 7.699219 C 11.316406 7.699219 13.359375 6.390625 15.128906 1.964844 L 24.136719 -20.363281 L 16.207031 -20.363281 L 14.167969 -14.320312 L 12.589844 -9.585938 L 10.703125 -14.320312 L 8.351562 -20.363281 L 0.191406 -20.363281 L 9.046875 -0.691406 C 8.46875 0.960938 7.621094 1.5 5.542969 1.5 L 3.042969 1.5 Z M 3.042969 7.699219 "/></g></g></g><g fill="#ffffff" fill-opacity="1"><g transform="translate(209.102804, 262.025455)"><g><path d="M 2.847656 0 L 10.625 0 L 10.625 -6.660156 L 14.203125 -6.660156 C 21.058594 -6.660156 25.40625 -10.625 25.40625 -16.824219 C 25.40625 -23.019531 21.058594 -26.945312 14.203125 -26.945312 L 2.847656 -26.945312 Z M 10.546875 -13.164062 L 10.546875 -20.402344 L 13.472656 -20.402344 C 16.050781 -20.402344 17.554688 -19.015625 17.554688 -16.785156 C 17.554688 -14.511719 16.050781 -13.164062 13.472656 -13.164062 Z M 10.546875 -13.164062 "/></g></g></g><g fill="#ffffff" fill-opacity="1"><g transform="translate(233.117647, 262.025455)"><g><path d="M 2.578125 0 L 9.96875 0 L 9.96875 -8.699219 C 9.96875 -12.164062 11.472656 -13.742188 14.78125 -13.742188 L 17.128906 -13.742188 L 17.128906 -20.363281 L 14.742188 -20.363281 C 11.894531 -20.363281 10.085938 -19.59375 8.816406 -17.824219 L 7.890625 -20.363281 L 2.578125 -20.363281 Z M 2.578125 0 "/></g></g></g><g fill="#ffffff" fill-opacity="1"><g transform="translate(249.165778, 262.025455)"><g><path d="M 13.050781 0.578125 C 20.09375 0.578125 24.867188 -3.773438 24.867188 -10.203125 C 24.867188 -16.589844 20.09375 -20.941406 13.050781 -20.941406 C 5.964844 -20.941406 1.191406 -16.589844 1.191406 -10.203125 C 1.191406 -3.773438 5.964844 0.578125 13.050781 0.578125 Z M 8.429688 -10.203125 C 8.429688 -12.894531 10.355469 -14.820312 13.050781 -14.820312 C 15.746094 -14.820312 17.632812 -12.894531 17.632812 -10.203125 C 17.632812 -7.46875 15.746094 -5.542969 13.050781 -5.542969 C 10.355469 -5.542969 8.429688 -7.46875 8.429688 -10.203125 Z M 8.429688 -10.203125 "/></g></g></g><g fill="#ffffff" fill-opacity="1"><g transform="translate(145.76702, 278.15792)"><g><path d="M 0.761719 0 L 3.28125 0 C 5.289062 0 6.632812 -1.28125 6.632812 -3.179688 C 6.632812 -5.070312 5.289062 -6.359375 3.28125 -6.359375 L 0.761719 -6.359375 Z M 2.207031 -1.328125 L 2.207031 -5.03125 L 3.234375 -5.03125 C 4.378906 -5.03125 5.152344 -4.296875 5.152344 -3.179688 C 5.152344 -2.0625 4.378906 -1.328125 3.253906 -1.328125 Z M 2.207031 -1.328125 "/></g></g></g><g fill="#ffffff" fill-opacity="1"><g transform="translate(157.895051, 278.15792)"><g><path d="M 0.761719 0 L 2.207031 0 L 2.207031 -1.980469 L 3.160156 -1.980469 L 4.296875 0 L 5.96875 0 L 4.652344 -2.207031 C 5.414062 -2.542969 5.859375 -3.234375 5.859375 -4.167969 C 5.859375 -5.523438 4.933594 -6.359375 3.480469 -6.359375 L 0.761719 -6.359375 Z M 2.1875 -3.199219 L 2.1875 -5.125 L 3.289062 -5.125 C 3.996094 -5.125 4.398438 -4.777344 4.398438 -4.160156 C 4.398438 -3.542969 3.996094 -3.199219 3.289062 -3.199219 Z M 2.1875 -3.199219 "/></g></g></g><g fill="#ffffff" fill-opacity="1"><g transform="translate(169.405321, 278.15792)"><g/></g></g><g fill="#ffffff" fill-opacity="1"><g transform="translate(176.654872, 278.15792)"><g><path d="M 0.761719 0 L 2.207031 0 L 2.207031 -1.980469 L 3.160156 -1.980469 L 4.296875 0 L 5.96875 0 L 4.652344 -2.207031 C 5.414062 -2.542969 5.859375 -3.234375 5.859375 -4.167969 C 5.859375 -5.523438 4.933594 -6.359375 3.480469 -6.359375 L 0.761719 -6.359375 Z M 2.1875 -3.199219 L 2.1875 -5.125 L 3.289062 -5.125 C 3.996094 -5.125 4.398438 -4.777344 4.398438 -4.160156 C 4.398438 -3.542969 3.996094 -3.199219 3.289062 -3.199219 Z M 2.1875 -3.199219 "/></g></g></g><g fill="#ffffff" fill-opacity="1"><g transform="translate(188.165141, 278.15792)"><g><path d="M 3.777344 0.128906 C 5.769531 0.128906 7.175781 -1.234375 7.175781 -3.179688 C 7.175781 -5.125 5.769531 -6.488281 3.777344 -6.488281 C 1.789062 -6.488281 0.390625 -5.125 0.390625 -3.179688 C 0.390625 -1.234375 1.789062 0.128906 3.777344 0.128906 Z M 1.863281 -3.179688 C 1.863281 -4.324219 2.652344 -5.113281 3.777344 -5.113281 C 4.914062 -5.113281 5.695312 -4.324219 5.695312 -3.179688 C 5.695312 -2.035156 4.914062 -1.246094 3.777344 -1.246094 C 2.652344 -1.246094 1.863281 -2.035156 1.863281 -3.179688 Z M 1.863281 -3.179688 "/></g></g></g><g fill="#ffffff" fill-opacity="1"><g transform="translate(200.847328, 278.15792)"><g><path d="M 0.761719 0 L 2.207031 0 L 2.207031 -2.570312 L 2.96875 -2.570312 C 3.089844 -2.570312 3.1875 -2.570312 3.296875 -2.578125 L 4.660156 0 L 6.339844 0 L 4.625 -3.117188 C 4.878906 -3.359375 5.070312 -3.679688 5.234375 -4.097656 L 6.113281 -6.359375 L 4.550781 -6.359375 L 3.953125 -4.707031 C 3.734375 -4.105469 3.46875 -3.914062 2.753906 -3.914062 L 2.207031 -3.914062 L 2.207031 -6.359375 L 0.761719 -6.359375 Z M 0.761719 0 "/></g></g></g><g fill="#ffffff" fill-opacity="1"><g transform="translate(212.566542, 278.15792)"><g><path d="M 0.761719 0 L 5.042969 0 L 5.042969 -1.226562 L 2.199219 -1.226562 L 2.199219 -2.617188 L 4.695312 -2.617188 L 4.695312 -3.824219 L 2.199219 -3.824219 L 2.199219 -5.140625 L 4.941406 -5.140625 L 4.941406 -6.359375 L 0.761719 -6.359375 Z M 0.761719 0 "/></g></g></g><g fill="#ffffff" fill-opacity="1"><g transform="translate(223.186507, 278.15792)"><g><path d="M 2.289062 0 L 3.734375 0 L 3.734375 -5.003906 L 5.75 -5.003906 L 5.75 -6.359375 L 0.273438 -6.359375 L 0.273438 -5.003906 L 2.289062 -5.003906 Z M 2.289062 0 "/></g></g></g></svg>